<?xml version="1.0" encoding="utf-8"?>
<!-- Generator: Adobe Illustrator 22.1.0, SVG Export Plug-In . SVG Version: 6.00 Build 0)  -->
<svg version="1.1" id="Layer_1" xmlns="http://www.w3.org/2000/svg" xmlns:xlink="http://www.w3.org/1999/xlink" x="0px" y="0px"
	 viewBox="0 0 562 1357" style="enable-background:new 0 0 562 1357;" xml:space="preserve">
<style type="text/css">
	.st0{fill:none;stroke:#2E6974;stroke-width:5;}
	.st1{fill:#2E6974;}
	.st2{fill:#31C0A1;}
	.st3{fill:#51E0C1;}
	.st4{fill:#24B394;}
	.st5{fill:#47D6B7;}
	.st6{fill:#008064;}
	.st7{fill-opacity:0.1075;}
	.st8{fill:#039273;}
	.st9{fill:url(#SVGID_1_);}
	.st10{fill:#FFFFFF;}
</style>
<g id="Path" transform="translate(0.000000, 171.000000)">
	<path id="Path-2" class="st0" d="M560.1,1183c0,0-372.5-220-517.6-670.6S198.2-50.4,198.2-50.4"/>
	<path id="Warp" class="st1" d="M135.6-16.6c15-10.2,55.1-54.9,63.9-34.2s-14.8,5.2-62.3,39.2C133.3-8.8,132.2-11.6,135.6-16.6z"/>
</g>
<path id="Base" class="st2" d="M413.1,22.1c-8.6,10.5-57.3,51.5-115.6,78.6S209.3,125,209.3,125l-7.2-15.4c0,0,17.8-24.6,75.5-51.5
	s104.8-34.9,134.3-38.7C422.6,14.3,423.7,17.1,413.1,22.1z"/>
<path id="Path-24" class="st3" d="M455,0.7c0,0-31.2,16.4-41.9,21.4c-3.3,4-12.4,12.5-25.8,23c-5.3-6.4-7.7-12-9.6-20.2
	c13.1-2.6,24.5-4.3,34.1-5.5C422.6,14.3,455,0.7,455,0.7z"/>
<path id="Path-25" class="st4" d="M276.8,49.4l-48.3,19.1l17.2,30.3c0,0-5.8,2.3-12.7,5.5c-11.7-43.3-63-25.4-92.8-22.8l-4.1-4.8
	l136.6-28.5L276.8,49.4z"/>
<polygon id="Path-25_1_" class="st5" points="276.8,49.4 136,76.8 274.1,44.1 "/>
<path id="Path-24_1_" class="st6" d="M268.3,113c0,0-23.7,9.5-43.8,11.5c-6-12.8-8.8-18.9-11.9-25.5c13.9-15.2,36.9-26.4,36.9-26.4
	L268.3,113z"/>
<path id="Shadow" class="st7" d="M413.1,22.1c-8.6,10.5-57.3,51.5-115.6,78.6c-34.7,16.2-59.3,21.7-73.5,23.5
	c-6.1-13.1-7.2-15.4-11-25c11.6,15,44.6-3.5,78.8-19.5c36.5-17,71.5-32.7,89.8-43.8c-0.7-1.4-1.8-3.3-3.8-11.1
	c10.9,18.4,30.5,0.7,35.1-3.5L413.1,22.1z"/>
<path id="Path-25_2_" class="st2" d="M303.6,106.8l-45.7,24.7c0,0,0,0-5.3-14.1c-0.6-1.2-2.5-3.8-7.1-2.4c-4.7,1.4-6.3,3.4-5.4,5.3
	c5.9,29.3-30.9,52.3-49,70.5l1.1,6.2l109.1-84.9L303.6,106.8z"/>
<polygon id="Path-25_3_" class="st8" points="303.6,106.8 192.1,197.1 306,112.4 "/>
<g>
	<g>
		<linearGradient id="SVGID_1_" gradientUnits="userSpaceOnUse" x1="313.0727" y1="58.2661" x2="346.6418" y2="58.2661">
			<stop  offset="1.005025e-02" style="stop-color:#3C0000"/>
			<stop  offset="1" style="stop-color:#00002A;stop-opacity:0.25"/>
		</linearGradient>
		<circle class="st9" cx="329.9" cy="58.3" r="16.8"/>
	</g>
	<g>
		<path class="st10" d="M320.9,48.6L320.9,48.6c-0.9,0.2-1.1,1.5-0.2,1.9l1.4,0.8c0.1,0.1,0.2,0.2,0.1,0.3l-0.8,1.4
			c-0.5,0.8,0.3,1.8,1.2,1.5l0,0c0.3-0.1,0.5-0.2,0.6-0.5l1.9-3.3c0.1-0.1,0-0.3-0.1-0.3l-3.3-1.9C321.5,48.6,321.2,48.6,320.9,48.6
			z"/>
		<path class="st10" d="M332,56.5L332,56.5c-0.9,0.2-1.1,1.5-0.2,1.9l1.4,0.8c0.1,0.1,0.2,0.2,0.1,0.3l-0.8,1.4
			c-0.5,0.8,0.3,1.8,1.2,1.5l0,0c0.3-0.1,0.5-0.2,0.6-0.5l1.9-3.3c0.1-0.1,0-0.3-0.1-0.3l-3.3-1.9C332.5,56.5,332.3,56.4,332,56.5z"
			/>
		<path class="st10" d="M337.6,67.8L337.6,67.8c0.9-0.2,1.1-1.5,0.2-1.9l-1.4-0.8c-0.1-0.1-0.2-0.2-0.1-0.3l0.8-1.4
			c0.5-0.8-0.3-1.8-1.2-1.5l0,0c-0.3,0.1-0.5,0.2-0.6,0.5l-1.9,3.3c-0.1,0.1,0,0.3,0.1,0.3l3.3,1.9C337,67.8,337.3,67.9,337.6,67.8z
			"/>
		<path class="st10" d="M326.5,59.9L326.5,59.9c0.9-0.2,1.1-1.5,0.2-1.9l-1.4-0.8c-0.1-0.1-0.2-0.2-0.1-0.3l0.8-1.4
			c0.5-0.8-0.3-1.8-1.2-1.5l0,0c-0.3,0.1-0.5,0.2-0.6,0.5l-1.9,3.3c-0.1,0.1,0,0.3,0.1,0.3l3.3,1.9C326,60,326.2,60,326.5,59.9z"/>
	</g>
</g>
</svg>
